<?xml version="1.0" encoding="UTF-8" standalone="no"?>
<!DOCTYPE svg PUBLIC "-//W3C//DTD SVG 1.1//EN" "http://www.w3.org/Graphics/SVG/1.1/DTD/svg11.dtd">
<svg width="100%" height="100%" viewBox="0 0 16 16" version="1.1" xmlns="http://www.w3.org/2000/svg" xmlns:xlink="http://www.w3.org/1999/xlink" xml:space="preserve" xmlns:serif="http://www.serif.com/" style="fill-rule:evenodd;clip-rule:evenodd;stroke-linejoin:round;stroke-miterlimit:2;">
    <g transform="matrix(0.0115939,0,0,0.0115939,0.429646,-0.0484784)">
        <g id="TextElement">
            <g id="Text" transform="matrix(64.7661,0,0,60.0776,-17811.9,-53913.5)">
                <path d="M279.547,902.926C280.327,903.628 280.535,903.602 281.653,903.29C282.849,902.952 285.241,902.718 286.905,902.666C287.763,902.614 287.841,902.718 287.581,903.082C286.723,904.304 285.033,906.124 284.149,906.462C283.109,906.826 283.057,906.878 282.979,907.71C282.875,908.828 283.629,909.01 284.383,908.698C285.683,908.126 288.543,907.918 289.635,908.126C290.233,908.23 290.285,908.49 290.129,909.036C289.531,911.22 288.283,913.508 287.139,914.99C286.411,915.926 286.359,915.9 285.475,915.406C284.981,915.146 284.045,914.574 283.551,914.366C282.667,913.95 282.251,914.288 283.213,915.458C283.785,916.134 284.981,917.304 285.397,917.928C286.281,919.254 286.385,919.28 287.633,918.058C290.675,915.094 292.079,909.972 292.573,909.53C293.223,908.958 293.405,908.776 293.041,908.152C292.703,907.58 291.663,906.93 291.195,906.618C290.857,906.384 290.441,906.046 289.661,906.306C288.881,906.54 288.413,906.254 286.931,906.462C288.023,905.266 289.895,903.472 290.571,903.186C291.611,902.718 291.897,902.432 291.481,902.042C290.935,901.496 290.571,900.95 290.103,900.612C289.583,900.196 289.167,900.456 288.179,900.742C287.347,900.976 281.393,901.678 280.405,901.496C278.065,901.08 277.987,901.47 279.547,902.926Z" style="fill:black;fill-rule:nonzero;"/>
                <path d="M284.778,904.241C284.724,904.294 284.67,904.346 284.617,904.396C284.276,904.716 283.97,904.996 283.728,905.099C282.618,905.49 282.228,905.851 281.992,906.261C281.825,906.553 281.713,906.932 281.654,907.566C281.654,907.566 281.654,907.566 281.654,907.567C281.556,908.615 281.894,909.276 282.311,909.689C282.896,910.267 283.87,910.448 284.86,910.038C284.869,910.035 284.878,910.031 284.886,910.027C285.757,909.644 287.442,909.454 288.588,909.474C287.986,911.198 287.016,912.905 286.117,914.07L286.074,914.124L286.059,914.116C285.548,913.847 284.584,913.265 284.059,913.039C283.4,912.733 282.843,912.726 282.507,912.818C282.043,912.945 281.729,913.235 281.532,913.608C281.373,913.91 281.272,914.304 281.364,914.809C281.428,915.161 281.649,915.72 282.216,916.41C282.221,916.415 282.225,916.42 282.229,916.426C282.773,917.069 283.92,918.172 284.316,918.766C284.662,919.286 284.931,919.641 285.162,919.857C285.543,920.213 285.918,920.356 286.296,920.381C286.638,920.404 287.015,920.329 287.445,920.055C287.718,919.881 288.063,919.577 288.527,919.122C291.374,916.347 292.893,911.795 293.545,910.525C294.21,909.912 294.469,909.418 294.535,908.97C294.599,908.546 294.551,908.044 294.168,907.388C294.167,907.385 294.166,907.383 294.164,907.381C293.743,906.668 292.496,905.798 291.905,905.404C291.562,905.166 291.169,904.89 290.628,904.796C290.799,904.665 290.946,904.57 291.058,904.522C291.066,904.519 291.075,904.515 291.084,904.511C291.842,904.17 292.303,903.842 292.532,903.581C292.868,903.197 292.985,902.795 292.996,902.416C293.008,901.978 292.881,901.462 292.375,900.978C291.787,900.388 291.376,899.813 290.872,899.44C290.291,898.984 289.768,898.886 289.113,898.995C288.786,899.049 288.391,899.194 287.839,899.354C287.054,899.572 281.545,900.25 280.629,900.081C280.627,900.08 280.624,900.08 280.622,900.079C279.567,899.892 278.866,899.878 278.491,899.959C277.855,900.096 277.527,900.466 277.349,900.813C277.141,901.216 277.043,901.752 277.342,902.409C277.502,902.763 277.932,903.318 278.675,904.011C278.681,904.017 278.687,904.023 278.694,904.028C279.185,904.47 279.55,904.697 279.903,904.816C280.419,904.992 280.955,904.968 281.987,904.68C281.988,904.679 281.989,904.679 281.991,904.679C282.653,904.492 283.705,904.342 284.778,904.241ZM279.547,902.926C280.327,903.628 280.535,903.602 281.653,903.29C282.849,902.952 285.241,902.718 286.905,902.666C287.763,902.614 287.841,902.718 287.581,903.082C286.723,904.304 285.033,906.124 284.149,906.462C283.109,906.826 283.057,906.878 282.979,907.71C282.875,908.828 283.629,909.01 284.383,908.698C285.683,908.126 288.543,907.918 289.635,908.126C290.233,908.23 290.285,908.49 290.129,909.036C289.531,911.22 288.283,913.508 287.139,914.99C286.411,915.926 286.359,915.9 285.475,915.406C284.981,915.146 284.045,914.574 283.551,914.366C282.667,913.95 282.251,914.288 283.213,915.458C283.785,916.134 284.981,917.304 285.397,917.928C286.281,919.254 286.385,919.28 287.633,918.058C290.675,915.094 292.079,909.972 292.573,909.53C293.223,908.958 293.405,908.776 293.041,908.152C292.703,907.58 291.663,906.93 291.195,906.618C290.857,906.384 290.441,906.046 289.661,906.306C288.881,906.54 288.413,906.254 286.931,906.462C288.023,905.266 289.895,903.472 290.571,903.186C291.611,902.718 291.897,902.432 291.481,902.042C290.935,901.496 290.571,900.95 290.103,900.612C289.583,900.196 289.167,900.456 288.179,900.742C287.347,900.976 281.393,901.678 280.405,901.496C278.065,901.08 277.987,901.47 279.547,902.926Z" style="fill:white;"/>
            </g>
        </g>
    </g>
</svg>
