<?xml version="1.0" encoding="UTF-8" standalone="no"?>
<!DOCTYPE svg PUBLIC "-//W3C//DTD SVG 1.1//EN" "http://www.w3.org/Graphics/SVG/1.1/DTD/svg11.dtd">
<svg width="100%" height="100%" viewBox="0 0 16 16" version="1.1" xmlns="http://www.w3.org/2000/svg" xmlns:xlink="http://www.w3.org/1999/xlink" xml:space="preserve" xmlns:serif="http://www.serif.com/" style="fill-rule:evenodd;clip-rule:evenodd;stroke-linejoin:round;stroke-miterlimit:2;">
    <g transform="matrix(0.0115939,0,0,0.0115939,0.429646,-0.0484784)">
        <g id="TextElement">
            <g id="TextShadow" transform="matrix(76.3556,0,0,67.9081,-21039.4,-60964.1)">
                <path d="M279.547,902.926C280.327,903.628 280.535,903.602 281.653,903.29C282.849,902.952 285.241,902.718 286.905,902.666C287.763,902.614 287.841,902.718 287.581,903.082C286.723,904.304 285.033,906.124 284.149,906.462C283.109,906.826 283.057,906.878 282.979,907.71C282.875,908.828 283.629,909.01 284.383,908.698C285.683,908.126 288.543,907.918 289.635,908.126C290.233,908.23 290.285,908.49 290.129,909.036C289.531,911.22 288.283,913.508 287.139,914.99C286.411,915.926 286.359,915.9 285.475,915.406C284.981,915.146 284.045,914.574 283.551,914.366C282.667,913.95 282.251,914.288 283.213,915.458C283.785,916.134 284.981,917.304 285.397,917.928C286.281,919.254 286.385,919.28 287.633,918.058C290.675,915.094 292.079,909.972 292.573,909.53C293.223,908.958 293.405,908.776 293.041,908.152C292.703,907.58 291.663,906.93 291.195,906.618C290.857,906.384 290.441,906.046 289.661,906.306C288.881,906.54 288.413,906.254 286.931,906.462C288.023,905.266 289.895,903.472 290.571,903.186C291.611,902.718 291.897,902.432 291.481,902.042C290.935,901.496 290.571,900.95 290.103,900.612C289.583,900.196 289.167,900.456 288.179,900.742C287.347,900.976 281.393,901.678 280.405,901.496C278.065,901.08 277.987,901.47 279.547,902.926Z" style="fill-opacity:0.8;fill-rule:nonzero;"/>
            </g>
        </g>
    </g>
</svg>
