<?xml version="1.0" encoding="UTF-8" standalone="no"?>
<!DOCTYPE svg PUBLIC "-//W3C//DTD SVG 1.1//EN" "http://www.w3.org/Graphics/SVG/1.1/DTD/svg11.dtd">
<svg width="100%" height="100%" viewBox="0 0 32 32" version="1.1" xmlns="http://www.w3.org/2000/svg" xmlns:xlink="http://www.w3.org/1999/xlink" xml:space="preserve" xmlns:serif="http://www.serif.com/" style="fill-rule:evenodd;clip-rule:evenodd;stroke-linejoin:round;stroke-miterlimit:2;">
    <g transform="matrix(0.0222222,0,0,0.0222222,0,-3.15797e-16)">
        <g id="BackElement">
            <g id="Shadow" transform="matrix(1.02102,0,0,1.05077,45,9.27378)">
                <path d="M1201,34L452.612,34C202.809,34 0,231.067 0,473.799L0,1201L1201,1201L1201,34Z" style="fill-opacity:0.63;"/>
            </g>
            <g id="Outline" transform="matrix(1.01166,0,0,1.04113,0,-35.3985)">
                <path d="M1201,34L452.612,34C202.809,34 0,231.067 0,473.799L0,1201L1201,1201L1201,34Z" style="fill:white;"/>
                <path d="M1201,34L452.612,34C202.809,34 0,231.067 0,473.799L0,1201L1201,1201L1201,34ZM1155.96,77.763L1155.96,1157.24C1155.96,1157.24 45.037,1157.24 45.037,1157.24C45.038,1157.24 45.038,473.799 45.038,473.799C45.038,255.22 227.666,77.763 452.612,77.763L1155.96,77.763Z" style="fill:rgb(26,49,84);"/>
            </g>
            <g id="Core" transform="matrix(0.861782,0,0,0.886889,90,59.8458)">
                <path d="M1201,34L452.612,34C202.809,34 0,231.067 0,473.799L0,1201L1201,1201L1201,34Z" style="fill:url(#_Radial1);"/>
            </g>
        </g>
        <g id="TextElementRev">
            <g id="TextShadow" transform="matrix(-76.3556,0,0,67.9081,22704.4,-60964.1)">
                <path d="M279.547,902.926C280.327,903.628 280.535,903.602 281.653,903.29C282.849,902.952 285.241,902.718 286.905,902.666C287.763,902.614 287.841,902.718 287.581,903.082C286.723,904.304 285.033,906.124 284.149,906.462C283.109,906.826 283.057,906.878 282.979,907.71C282.875,908.828 283.629,909.01 284.383,908.698C285.683,908.126 288.543,907.918 289.635,908.126C290.233,908.23 290.285,908.49 290.129,909.036C289.531,911.22 288.283,913.508 287.139,914.99C286.411,915.926 286.359,915.9 285.475,915.406C284.981,915.146 284.045,914.574 283.551,914.366C282.667,913.95 282.251,914.288 283.213,915.458C283.785,916.134 284.981,917.304 285.397,917.928C286.281,919.254 286.385,919.28 287.633,918.058C290.675,915.094 292.079,909.972 292.573,909.53C293.223,908.958 293.405,908.776 293.041,908.152C292.703,907.58 291.663,906.93 291.195,906.618C290.857,906.384 290.441,906.046 289.661,906.306C288.881,906.54 288.413,906.254 286.931,906.462C288.023,905.266 289.895,903.472 290.571,903.186C291.611,902.718 291.897,902.432 291.481,902.042C290.935,901.496 290.571,900.95 290.103,900.612C289.583,900.196 289.167,900.456 288.179,900.742C287.347,900.976 281.393,901.678 280.405,901.496C278.065,901.08 277.987,901.47 279.547,902.926Z" style="fill-opacity:0.8;fill-rule:nonzero;"/>
            </g>
            <g id="Text" transform="matrix(-64.7661,0,0,60.0776,19216.1,-53913.5)">
                <path d="M279.547,902.926C280.327,903.628 280.535,903.602 281.653,903.29C282.849,902.952 285.241,902.718 286.905,902.666C287.763,902.614 287.841,902.718 287.581,903.082C286.723,904.304 285.033,906.124 284.149,906.462C283.109,906.826 283.057,906.878 282.979,907.71C282.875,908.828 283.629,909.01 284.383,908.698C285.683,908.126 288.543,907.918 289.635,908.126C290.233,908.23 290.285,908.49 290.129,909.036C289.531,911.22 288.283,913.508 287.139,914.99C286.411,915.926 286.359,915.9 285.475,915.406C284.981,915.146 284.045,914.574 283.551,914.366C282.667,913.95 282.251,914.288 283.213,915.458C283.785,916.134 284.981,917.304 285.397,917.928C286.281,919.254 286.385,919.28 287.633,918.058C290.675,915.094 292.079,909.972 292.573,909.53C293.223,908.958 293.405,908.776 293.041,908.152C292.703,907.58 291.663,906.93 291.195,906.618C290.857,906.384 290.441,906.046 289.661,906.306C288.881,906.54 288.413,906.254 286.931,906.462C288.023,905.266 289.895,903.472 290.571,903.186C291.611,902.718 291.897,902.432 291.481,902.042C290.935,901.496 290.571,900.95 290.103,900.612C289.583,900.196 289.167,900.456 288.179,900.742C287.347,900.976 281.393,901.678 280.405,901.496C278.065,901.08 277.987,901.47 279.547,902.926Z" style="fill:rgb(0,0,109);fill-rule:nonzero;"/>
                <path d="M288.716,905.65C288.973,905.661 289.194,905.665 289.457,905.589C290.529,905.237 291.103,905.664 291.566,905.984C292.098,906.339 293.246,907.104 293.627,907.749C293.628,907.751 293.628,907.752 293.629,907.753C293.898,908.214 293.951,908.563 293.907,908.861C293.854,909.215 293.61,909.577 293.056,910.071C293.013,910.16 292.737,910.742 292.496,911.315C291.694,913.226 290.306,916.463 288.099,918.613C287.678,919.025 287.368,919.306 287.12,919.464C286.826,919.652 286.57,919.712 286.335,919.696C286.082,919.679 285.834,919.576 285.579,919.338C285.374,919.146 285.14,918.826 284.833,918.365C284.427,917.757 283.257,916.621 282.7,915.963C282.697,915.96 282.695,915.957 282.693,915.955C282.236,915.399 282.04,914.96 281.988,914.676C281.933,914.37 281.989,914.13 282.086,913.947C282.202,913.727 282.389,913.558 282.663,913.483C282.913,913.415 283.325,913.444 283.82,913.675C284.327,913.891 285.277,914.468 285.78,914.733C285.785,914.735 285.79,914.738 285.795,914.741C285.951,914.828 286.125,914.914 286.223,914.961C286.304,914.872 286.461,914.695 286.606,914.51C287.693,913.1 288.88,910.93 289.454,908.853C288.401,908.678 285.827,908.871 284.645,909.391C284.641,909.393 284.636,909.395 284.632,909.397C283.899,909.7 283.174,909.61 282.741,909.183C282.439,908.883 282.217,908.396 282.288,907.635C282.288,907.635 282.288,907.635 282.288,907.635C282.333,907.145 282.405,906.847 282.534,906.622C282.719,906.299 283.051,906.059 283.927,905.752C284.219,905.638 284.612,905.311 285.035,904.913C285.501,904.475 285.989,903.945 286.408,903.436C284.847,903.512 282.87,903.72 281.829,904.014C281.828,904.015 281.828,904.015 281.827,904.015C280.968,904.255 280.524,904.308 280.094,904.161C279.803,904.063 279.507,903.866 279.102,903.501C279.098,903.498 279.095,903.495 279.092,903.492C278.443,902.887 278.054,902.416 277.914,902.107C277.734,901.711 277.781,901.389 277.906,901.146C278.016,900.932 278.225,900.717 278.616,900.632C278.951,900.56 279.576,900.589 280.518,900.757C280.519,900.757 280.521,900.757 280.522,900.758C281.472,900.933 287.195,900.243 288.002,900.018C288.526,899.866 288.9,899.725 289.21,899.673C289.693,899.593 290.078,899.663 290.506,900.002C290.988,900.355 291.375,900.912 291.939,901.479C292.271,901.795 292.367,902.116 292.359,902.395C292.352,902.628 292.275,902.873 292.068,903.109C291.875,903.33 291.478,903.59 290.839,903.877C290.834,903.879 290.829,903.881 290.825,903.883C290.417,904.056 289.553,904.825 288.716,905.65ZM279.547,902.926C280.327,903.628 280.535,903.602 281.653,903.29C282.849,902.952 285.241,902.718 286.905,902.666C287.763,902.614 287.841,902.718 287.581,903.082C286.723,904.304 285.033,906.124 284.149,906.462C283.109,906.826 283.057,906.878 282.979,907.71C282.875,908.828 283.629,909.01 284.383,908.698C285.683,908.126 288.543,907.918 289.635,908.126C290.233,908.23 290.285,908.49 290.129,909.036C289.531,911.22 288.283,913.508 287.139,914.99C286.411,915.926 286.359,915.9 285.475,915.406C284.981,915.146 284.045,914.574 283.551,914.366C282.667,913.95 282.251,914.288 283.213,915.458C283.785,916.134 284.981,917.304 285.397,917.928C286.281,919.254 286.385,919.28 287.633,918.058C290.675,915.094 292.079,909.972 292.573,909.53C293.223,908.958 293.405,908.776 293.041,908.152C292.703,907.58 291.663,906.93 291.195,906.618C290.857,906.384 290.441,906.046 289.661,906.306C288.881,906.54 288.413,906.254 286.931,906.462C288.023,905.266 289.895,903.472 290.571,903.186C291.611,902.718 291.897,902.432 291.481,902.042C290.935,901.496 290.571,900.95 290.103,900.612C289.583,900.196 289.167,900.456 288.179,900.742C287.347,900.976 281.393,901.678 280.405,901.496C278.065,901.08 277.987,901.47 279.547,902.926Z" style="fill:white;"/>
            </g>
        </g>
    </g>
    <defs>
        <radialGradient id="_Radial1" cx="0" cy="0" r="1" gradientUnits="userSpaceOnUse" gradientTransform="matrix(-1087.57,-3794.91,3905.47,-1056.78,1725.88,3633.33)"><stop offset="0" style="stop-color:rgb(28,53,85);stop-opacity:1"/><stop offset="0.82" style="stop-color:rgb(46,86,138);stop-opacity:1"/><stop offset="0.88" style="stop-color:rgb(140,173,217);stop-opacity:1"/><stop offset="0.95" style="stop-color:rgb(193,219,243);stop-opacity:1"/><stop offset="1" style="stop-color:rgb(218,240,255);stop-opacity:1"/></radialGradient>
    </defs>
</svg>
