<?xml version="1.0" encoding="UTF-8" standalone="no"?>
<!DOCTYPE svg PUBLIC "-//W3C//DTD SVG 1.1//EN" "http://www.w3.org/Graphics/SVG/1.1/DTD/svg11.dtd">
<svg width="100%" height="100%" viewBox="0 0 16 16" version="1.1" xmlns="http://www.w3.org/2000/svg" xmlns:xlink="http://www.w3.org/1999/xlink" xml:space="preserve" xmlns:serif="http://www.serif.com/" style="fill-rule:evenodd;clip-rule:evenodd;stroke-linejoin:round;stroke-miterlimit:2;">
    <g id="CHS">
        <path d="M16,3.774C16,1.691 14.309,0 12.226,0L3.774,0C1.691,0 0,1.691 0,3.774L0,12.226C0,14.309 1.691,16 3.774,16L12.226,16C14.309,16 16,14.309 16,12.226L16,3.774Z" style="fill:white;"/>
        <path d="M16,8.465L6.413,8.465L5,16L12.226,16C14.309,16 16,14.309 16,12.226L16,8.465Z" style="fill:rgb(64,134,191);"/>
        <path d="M16,3.774C16,1.691 14.309,0 12.226,0L8,0L6.413,8.465L16,8.465L16,3.774Z" style="fill:rgb(83,191,64);"/>
        <path d="M0,8.465L6.413,8.465L8,0L3.774,0C1.691,0 0,1.691 0,3.774L0,8.465Z" style="fill:rgb(255,200,0);"/>
        <path d="M5,16L6.413,8.465L0,8.465L0,12.226C0,14.309 1.691,16 3.774,16L5,16Z" style="fill:rgb(255,81,0);"/>
    </g>
    <g transform="matrix(0.750892,0,0,0.696534,-206.162,-625.152)">
        <g id="TextElement">
            <g id="Text">
                <path d="M279.547,902.926C280.327,903.628 280.535,903.602 281.653,903.29C282.849,902.952 285.241,902.718 286.905,902.666C287.763,902.614 287.841,902.718 287.581,903.082C286.723,904.304 285.033,906.124 284.149,906.462C283.109,906.826 283.057,906.878 282.979,907.71C282.875,908.828 283.629,909.01 284.383,908.698C285.683,908.126 288.543,907.918 289.635,908.126C290.233,908.23 290.285,908.49 290.129,909.036C289.531,911.22 288.283,913.508 287.139,914.99C286.411,915.926 286.359,915.9 285.475,915.406C284.981,915.146 284.045,914.574 283.551,914.366C282.667,913.95 282.251,914.288 283.213,915.458C283.785,916.134 284.981,917.304 285.397,917.928C286.281,919.254 286.385,919.28 287.633,918.058C290.675,915.094 292.079,909.972 292.573,909.53C293.223,908.958 293.405,908.776 293.041,908.152C292.703,907.58 291.663,906.93 291.195,906.618C290.857,906.384 290.441,906.046 289.661,906.306C288.881,906.54 288.413,906.254 286.931,906.462C288.023,905.266 289.895,903.472 290.571,903.186C291.611,902.718 291.897,902.432 291.481,902.042C290.935,901.496 290.571,900.95 290.103,900.612C289.583,900.196 289.167,900.456 288.179,900.742C287.347,900.976 281.393,901.678 280.405,901.496C278.065,901.08 277.987,901.47 279.547,902.926Z" style="fill-rule:nonzero;"/>
                <path d="M284.778,904.241C284.724,904.294 284.67,904.346 284.617,904.396C284.276,904.716 283.97,904.996 283.728,905.099C282.618,905.49 282.228,905.851 281.992,906.261C281.825,906.553 281.713,906.932 281.654,907.566C281.654,907.566 281.654,907.566 281.654,907.567C281.556,908.615 281.894,909.276 282.311,909.689C282.896,910.267 283.87,910.448 284.86,910.038C284.869,910.035 284.878,910.031 284.886,910.027C285.757,909.644 287.442,909.454 288.588,909.474C287.986,911.198 287.016,912.905 286.117,914.07L286.074,914.124L286.059,914.116C285.548,913.847 284.584,913.265 284.059,913.039C283.4,912.733 282.843,912.726 282.507,912.818C282.043,912.945 281.729,913.235 281.532,913.608C281.373,913.91 281.272,914.304 281.364,914.809C281.428,915.161 281.649,915.72 282.216,916.41C282.221,916.415 282.225,916.42 282.229,916.426C282.773,917.069 283.92,918.172 284.316,918.766C284.662,919.286 284.931,919.641 285.162,919.857C285.543,920.213 285.918,920.356 286.296,920.381C286.638,920.404 287.015,920.329 287.445,920.055C287.718,919.881 288.063,919.577 288.527,919.122C291.374,916.347 292.893,911.795 293.545,910.525C294.21,909.912 294.469,909.418 294.535,908.97C294.599,908.546 294.551,908.044 294.168,907.388C294.167,907.385 294.166,907.383 294.164,907.381C293.743,906.668 292.496,905.798 291.905,905.404C291.562,905.166 291.169,904.89 290.628,904.796C290.799,904.665 290.946,904.57 291.058,904.522C291.066,904.519 291.075,904.515 291.084,904.511C291.842,904.17 292.303,903.842 292.532,903.581C292.868,903.197 292.985,902.795 292.996,902.416C293.008,901.978 292.881,901.462 292.375,900.978C291.787,900.388 291.376,899.813 290.872,899.44C290.291,898.984 289.768,898.886 289.113,898.995C288.786,899.049 288.391,899.194 287.839,899.354C287.054,899.572 281.545,900.25 280.629,900.081C280.627,900.08 280.624,900.08 280.622,900.079C279.567,899.892 278.866,899.878 278.491,899.959C277.855,900.096 277.527,900.466 277.349,900.813C277.141,901.216 277.043,901.752 277.342,902.409C277.502,902.763 277.932,903.318 278.675,904.011C278.681,904.017 278.687,904.023 278.694,904.028C279.185,904.47 279.55,904.697 279.903,904.816C280.419,904.992 280.955,904.968 281.987,904.68C281.988,904.679 281.989,904.679 281.991,904.679C282.653,904.492 283.705,904.342 284.778,904.241ZM279.547,902.926C280.327,903.628 280.535,903.602 281.653,903.29C282.849,902.952 285.241,902.718 286.905,902.666C287.763,902.614 287.841,902.718 287.581,903.082C286.723,904.304 285.033,906.124 284.149,906.462C283.109,906.826 283.057,906.878 282.979,907.71C282.875,908.828 283.629,909.01 284.383,908.698C285.683,908.126 288.543,907.918 289.635,908.126C290.233,908.23 290.285,908.49 290.129,909.036C289.531,911.22 288.283,913.508 287.139,914.99C286.411,915.926 286.359,915.9 285.475,915.406C284.981,915.146 284.045,914.574 283.551,914.366C282.667,913.95 282.251,914.288 283.213,915.458C283.785,916.134 284.981,917.304 285.397,917.928C286.281,919.254 286.385,919.28 287.633,918.058C290.675,915.094 292.079,909.972 292.573,909.53C293.223,908.958 293.405,908.776 293.041,908.152C292.703,907.58 291.663,906.93 291.195,906.618C290.857,906.384 290.441,906.046 289.661,906.306C288.881,906.54 288.413,906.254 286.931,906.462C288.023,905.266 289.895,903.472 290.571,903.186C291.611,902.718 291.897,902.432 291.481,902.042C290.935,901.496 290.571,900.95 290.103,900.612C289.583,900.196 289.167,900.456 288.179,900.742C287.347,900.976 281.393,901.678 280.405,901.496C278.065,901.08 277.987,901.47 279.547,902.926Z" style="fill:white;"/>
                <path d="M279.547,902.926C280.327,903.628 280.535,903.602 281.653,903.29C282.849,902.952 285.241,902.718 286.905,902.666C287.763,902.614 287.841,902.718 287.581,903.082C286.723,904.304 285.033,906.124 284.149,906.462C283.109,906.826 283.057,906.878 282.979,907.71C282.875,908.828 283.629,909.01 284.383,908.698C285.683,908.126 288.543,907.918 289.635,908.126C290.233,908.23 290.285,908.49 290.129,909.036C289.531,911.22 288.283,913.508 287.139,914.99C286.411,915.926 286.359,915.9 285.475,915.406C284.981,915.146 284.045,914.574 283.551,914.366C282.667,913.95 282.251,914.288 283.213,915.458C283.785,916.134 284.981,917.304 285.397,917.928C286.281,919.254 286.385,919.28 287.633,918.058C290.675,915.094 292.079,909.972 292.573,909.53C293.223,908.958 293.405,908.776 293.041,908.152C292.703,907.58 291.663,906.93 291.195,906.618C290.857,906.384 290.441,906.046 289.661,906.306C288.881,906.54 288.413,906.254 286.931,906.462C288.023,905.266 289.895,903.472 290.571,903.186C291.611,902.718 291.897,902.432 291.481,902.042C290.935,901.496 290.571,900.95 290.103,900.612C289.583,900.196 289.167,900.456 288.179,900.742C287.347,900.976 281.393,901.678 280.405,901.496C278.065,901.08 277.987,901.47 279.547,902.926Z" style="fill-rule:nonzero;"/>
                <path d="M287.346,902.94C286.511,904.121 284.91,905.864 284.062,906.19C283.738,906.304 283.507,906.389 283.338,906.475C283.119,906.588 282.988,906.709 282.898,906.865C282.795,907.046 282.751,907.288 282.714,907.681C282.714,907.681 282.714,907.681 282.714,907.681C282.661,908.249 282.805,908.619 283.031,908.842C283.362,909.169 283.919,909.198 284.478,908.966C284.48,908.965 284.482,908.965 284.484,908.964C285.747,908.408 288.527,908.207 289.589,908.409C289.59,908.409 289.591,908.409 289.593,908.409C289.689,908.426 289.768,908.447 289.831,908.474C289.876,908.494 289.911,908.511 289.927,908.544C289.941,908.575 289.939,908.612 289.936,908.655C289.93,908.74 289.907,908.838 289.874,908.951C289.874,908.953 289.874,908.954 289.874,908.955C289.286,911.101 288.059,913.349 286.935,914.806C286.762,915.028 286.63,915.194 286.515,915.309C286.438,915.386 286.378,915.438 286.311,915.453C286.247,915.468 286.183,915.446 286.1,915.412C285.967,915.358 285.807,915.268 285.598,915.151C285.596,915.15 285.594,915.149 285.592,915.148C285.094,914.886 284.153,914.312 283.653,914.101C283.338,913.953 283.072,913.896 282.886,913.911C282.675,913.929 282.535,914.031 282.458,914.175C282.392,914.301 282.367,914.483 282.443,914.721C282.515,914.947 282.693,915.258 283.014,915.648C283.015,915.649 283.015,915.65 283.016,915.652C283.583,916.321 284.769,917.478 285.181,918.096C285.462,918.518 285.672,918.813 285.859,918.989C286.03,919.148 286.193,919.224 286.362,919.235C286.524,919.246 286.699,919.196 286.902,919.067C287.133,918.919 287.419,918.655 287.812,918.271C289.971,916.167 291.321,912.995 292.106,911.125C292.302,910.658 292.462,910.274 292.59,910.014C292.654,909.884 292.699,909.79 292.743,909.751C292.994,909.53 293.178,909.361 293.296,909.207C293.402,909.066 293.462,908.93 293.484,908.788C293.516,908.574 293.459,908.33 293.266,907.999C293.266,907.999 293.266,907.998 293.266,907.998C292.911,907.398 291.83,906.703 291.337,906.375C290.952,906.108 290.475,905.736 289.588,906.03C289.228,906.138 288.939,906.122 288.569,906.107C288.312,906.096 288.018,906.085 287.647,906.104C288.707,905 290.107,903.691 290.668,903.453C290.67,903.453 290.672,903.452 290.674,903.451C291.118,903.251 291.432,903.079 291.623,902.921C291.84,902.741 291.926,902.554 291.931,902.381C291.935,902.209 291.861,902.02 291.661,901.83C291.106,901.275 290.732,900.723 290.257,900.377C289.933,900.12 289.641,900.069 289.276,900.13C288.976,900.18 288.617,900.318 288.111,900.464C287.288,900.695 281.423,901.392 280.45,901.213C280.449,901.213 280.449,901.213 280.448,901.213C279.582,901.059 279.009,901.018 278.7,901.085C278.473,901.134 278.344,901.246 278.281,901.37C278.211,901.505 278.198,901.684 278.299,901.904C278.425,902.182 278.787,902.597 279.373,903.143C279.374,903.144 279.375,903.145 279.376,903.146C279.724,903.459 279.974,903.636 280.223,903.721C280.595,903.848 280.977,903.775 281.72,903.568C281.72,903.568 281.72,903.568 281.721,903.568C282.903,903.234 285.268,903.004 286.913,902.953L287.346,902.94ZM279.547,902.926C280.327,903.628 280.535,903.602 281.653,903.29C282.849,902.952 285.241,902.718 286.905,902.666C287.763,902.614 287.841,902.718 287.581,903.082C286.723,904.304 285.033,906.124 284.149,906.462C283.109,906.826 283.057,906.878 282.979,907.71C282.875,908.828 283.629,909.01 284.383,908.698C285.683,908.126 288.543,907.918 289.635,908.126C290.233,908.23 290.285,908.49 290.129,909.036C289.531,911.22 288.283,913.508 287.139,914.99C286.411,915.926 286.359,915.9 285.475,915.406C284.981,915.146 284.045,914.574 283.551,914.366C282.667,913.95 282.251,914.288 283.213,915.458C283.785,916.134 284.981,917.304 285.397,917.928C286.281,919.254 286.385,919.28 287.633,918.058C290.675,915.094 292.079,909.972 292.573,909.53C293.223,908.958 293.405,908.776 293.041,908.152C292.703,907.58 291.663,906.93 291.195,906.618C290.857,906.384 290.441,906.046 289.661,906.306C288.881,906.54 288.413,906.254 286.931,906.462C288.023,905.266 289.895,903.472 290.571,903.186C291.611,902.718 291.897,902.432 291.481,902.042C290.935,901.496 290.571,900.95 290.103,900.612C289.583,900.196 289.167,900.456 288.179,900.742C287.347,900.976 281.393,901.678 280.405,901.496C278.065,901.08 277.987,901.47 279.547,902.926Z"/>
            </g>
        </g>
    </g>
</svg>
