<?xml version="1.0" encoding="UTF-8" standalone="no"?>
<!DOCTYPE svg PUBLIC "-//W3C//DTD SVG 1.1//EN" "http://www.w3.org/Graphics/SVG/1.1/DTD/svg11.dtd">
<svg width="100%" height="100%" viewBox="0 0 32 32" version="1.1" xmlns="http://www.w3.org/2000/svg" xmlns:xlink="http://www.w3.org/1999/xlink" xml:space="preserve" xmlns:serif="http://www.serif.com/" style="fill-rule:evenodd;clip-rule:evenodd;stroke-linejoin:round;stroke-miterlimit:2;">
    <g transform="matrix(0.0222222,0,0,0.0222222,0,-3.15797e-16)">
        <g id="BackElement" transform="matrix(-1,-1.22465e-16,1.22465e-16,-1,1215,1215)">
            <g id="Shadow" transform="matrix(-1.02102,-1.25039e-16,1.28682e-16,-1.05077,1164.37,1200.1)">
                <path d="M1201,34L452.612,34C202.809,34 0,231.067 0,473.799L0,1201L1201,1201L1201,34Z" style="fill-opacity:0.63;"/>
            </g>
            <g id="Outline" transform="matrix(-1.01166,-1.23893e-16,1.27502e-16,-1.04113,1215,1250.4)">
                <path d="M1201,34L452.612,34C202.809,34 0,231.067 0,473.799L0,1201L1201,1201L1201,34Z" style="fill:white;"/>
                <path d="M1201,34L452.612,34C202.809,34 0,231.067 0,473.799L0,1201L1201,1201L1201,34ZM1155.96,77.763L1155.96,1157.24L45.037,1157.24C45.038,1157.24 45.038,473.799 45.038,473.799C45.038,255.22 227.666,77.763 452.612,77.763L1155.96,77.763Z" style="fill:rgb(11,46,99);"/>
            </g>
            <g id="Core" transform="matrix(-0.861782,-1.05538e-16,1.08613e-16,-0.886889,1125,1155.15)">
                <path d="M1201,34L452.612,34C202.809,34 0,231.067 0,473.799L0,1201L1201,1201L1201,34Z" style="fill:url(#_Radial1);"/>
            </g>
        </g>
        <g id="TextElement">
            <g id="TextShadow" transform="matrix(76.3556,0,0,67.9081,-21039.4,-60964.1)">
                <path d="M279.547,902.926C280.327,903.628 280.535,903.602 281.653,903.29C282.849,902.952 285.241,902.718 286.905,902.666C287.763,902.614 287.841,902.718 287.581,903.082C286.723,904.304 285.033,906.124 284.149,906.462C283.109,906.826 283.057,906.878 282.979,907.71C282.875,908.828 283.629,909.01 284.383,908.698C285.683,908.126 288.543,907.918 289.635,908.126C290.233,908.23 290.285,908.49 290.129,909.036C289.531,911.22 288.283,913.508 287.139,914.99C286.411,915.926 286.359,915.9 285.475,915.406C284.981,915.146 284.045,914.574 283.551,914.366C282.667,913.95 282.251,914.288 283.213,915.458C283.785,916.134 284.981,917.304 285.397,917.928C286.281,919.254 286.385,919.28 287.633,918.058C290.675,915.094 292.079,909.972 292.573,909.53C293.223,908.958 293.405,908.776 293.041,908.152C292.703,907.58 291.663,906.93 291.195,906.618C290.857,906.384 290.441,906.046 289.661,906.306C288.881,906.54 288.413,906.254 286.931,906.462C288.023,905.266 289.895,903.472 290.571,903.186C291.611,902.718 291.897,902.432 291.481,902.042C290.935,901.496 290.571,900.95 290.103,900.612C289.583,900.196 289.167,900.456 288.179,900.742C287.347,900.976 281.393,901.678 280.405,901.496C278.065,901.08 277.987,901.47 279.547,902.926Z" style="fill-opacity:0.8;fill-rule:nonzero;"/>
            </g>
            <g id="Text" transform="matrix(64.7661,0,0,60.0776,-17811.9,-53913.5)">
                <path d="M279.547,902.926C280.327,903.628 280.535,903.602 281.653,903.29C282.849,902.952 285.241,902.718 286.905,902.666C287.763,902.614 287.841,902.718 287.581,903.082C286.723,904.304 285.033,906.124 284.149,906.462C283.109,906.826 283.057,906.878 282.979,907.71C282.875,908.828 283.629,909.01 284.383,908.698C285.683,908.126 288.543,907.918 289.635,908.126C290.233,908.23 290.285,908.49 290.129,909.036C289.531,911.22 288.283,913.508 287.139,914.99C286.411,915.926 286.359,915.9 285.475,915.406C284.981,915.146 284.045,914.574 283.551,914.366C282.667,913.95 282.251,914.288 283.213,915.458C283.785,916.134 284.981,917.304 285.397,917.928C286.281,919.254 286.385,919.28 287.633,918.058C290.675,915.094 292.079,909.972 292.573,909.53C293.223,908.958 293.405,908.776 293.041,908.152C292.703,907.58 291.663,906.93 291.195,906.618C290.857,906.384 290.441,906.046 289.661,906.306C288.881,906.54 288.413,906.254 286.931,906.462C288.023,905.266 289.895,903.472 290.571,903.186C291.611,902.718 291.897,902.432 291.481,902.042C290.935,901.496 290.571,900.95 290.103,900.612C289.583,900.196 289.167,900.456 288.179,900.742C287.347,900.976 281.393,901.678 280.405,901.496C278.065,901.08 277.987,901.47 279.547,902.926Z" style="fill:rgb(16,42,103);fill-rule:nonzero;"/>
                <path d="M286.408,903.436C285.989,903.945 285.501,904.475 285.035,904.913C284.616,905.308 284.225,905.633 283.93,905.751C283.05,906.06 282.719,906.299 282.534,906.622C282.405,906.847 282.333,907.145 282.288,907.635C282.217,908.396 282.439,908.883 282.741,909.183C283.174,909.61 283.899,909.7 284.632,909.397C284.636,909.395 284.641,909.393 284.645,909.391C285.827,908.871 288.401,908.678 289.454,908.853C288.88,910.93 287.693,913.1 286.606,914.51C286.461,914.695 286.304,914.872 286.223,914.961C286.125,914.914 285.951,914.828 285.795,914.741C285.79,914.738 285.785,914.735 285.78,914.733C285.276,914.467 284.322,913.888 283.812,913.672C283.323,913.444 282.912,913.415 282.663,913.483C282.389,913.558 282.202,913.727 282.086,913.947C281.989,914.13 281.933,914.37 281.988,914.676C282.04,914.96 282.236,915.399 282.693,915.955C282.695,915.957 282.697,915.96 282.7,915.963C283.257,916.621 284.427,917.757 284.833,918.365C285.14,918.826 285.374,919.146 285.579,919.338C285.834,919.576 286.082,919.679 286.335,919.696C286.57,919.712 286.826,919.652 287.12,919.464C287.368,919.306 287.678,919.025 288.099,918.613C290.306,916.463 291.694,913.226 292.496,911.315C292.737,910.742 293.013,910.16 293.056,910.071C293.608,909.579 293.854,909.215 293.907,908.861C293.951,908.563 293.898,908.214 293.629,907.753C293.628,907.752 293.628,907.751 293.627,907.749C293.246,907.104 292.098,906.339 291.566,905.984C291.103,905.664 290.527,905.236 289.463,905.588C289.199,905.666 288.977,905.662 288.716,905.65C289.553,904.825 290.417,904.056 290.825,903.883C290.829,903.881 290.834,903.879 290.839,903.877C291.478,903.59 291.875,903.33 292.068,903.109C292.275,902.873 292.352,902.628 292.359,902.395C292.367,902.115 292.27,901.793 291.944,901.484C291.378,900.916 290.988,900.353 290.5,899.997C290.076,899.663 289.692,899.593 289.21,899.673C288.9,899.725 288.526,899.866 288.002,900.018C287.195,900.243 281.472,900.933 280.522,900.758C280.521,900.757 280.519,900.757 280.518,900.757C279.576,900.589 278.951,900.56 278.616,900.632C278.225,900.717 278.016,900.932 277.906,901.146C277.781,901.389 277.734,901.711 277.914,902.107C278.054,902.416 278.443,902.887 279.092,903.492C279.095,903.495 279.098,903.498 279.102,903.501C279.507,903.866 279.803,904.063 280.094,904.161C280.524,904.308 280.968,904.255 281.827,904.015C281.828,904.015 281.828,904.015 281.829,904.014C282.87,903.72 284.847,903.512 286.408,903.436ZM279.547,902.926C280.327,903.628 280.535,903.602 281.653,903.29C282.849,902.952 285.241,902.718 286.905,902.666C287.763,902.614 287.841,902.718 287.581,903.082C286.723,904.304 285.033,906.124 284.149,906.462C283.109,906.826 283.057,906.878 282.979,907.71C282.875,908.828 283.629,909.01 284.383,908.698C285.683,908.126 288.543,907.918 289.635,908.126C290.233,908.23 290.285,908.49 290.129,909.036C289.531,911.22 288.283,913.508 287.139,914.99C286.411,915.926 286.359,915.9 285.475,915.406C284.981,915.146 284.045,914.574 283.551,914.366C282.667,913.95 282.251,914.288 283.213,915.458C283.785,916.134 284.981,917.304 285.397,917.928C286.281,919.254 286.385,919.28 287.633,918.058C290.675,915.094 292.079,909.972 292.573,909.53C293.223,908.958 293.405,908.776 293.041,908.152C292.703,907.58 291.663,906.93 291.195,906.618C290.857,906.384 290.441,906.046 289.661,906.306C288.881,906.54 288.413,906.254 286.931,906.462C288.023,905.266 289.895,903.472 290.571,903.186C291.611,902.718 291.897,902.432 291.481,902.042C290.935,901.496 290.571,900.95 290.103,900.612C289.583,900.196 289.167,900.456 288.179,900.742C287.347,900.976 281.393,901.678 280.405,901.496C278.065,901.08 277.987,901.47 279.547,902.926Z" style="fill:white;"/>
            </g>
        </g>
    </g>
    <defs>
        <radialGradient id="_Radial1" cx="0" cy="0" r="1" gradientUnits="userSpaceOnUse" gradientTransform="matrix(-1087.57,-3794.91,3905.47,-1056.78,1725.88,3633.33)"><stop offset="0" style="stop-color:rgb(218,240,255);stop-opacity:1"/><stop offset="0.28" style="stop-color:rgb(200,225,246);stop-opacity:1"/><stop offset="0.51" style="stop-color:rgb(193,219,243);stop-opacity:1"/><stop offset="0.73" style="stop-color:rgb(127,167,220);stop-opacity:1"/><stop offset="0.87" style="stop-color:rgb(14,87,170);stop-opacity:1"/><stop offset="1" style="stop-color:rgb(9,53,104);stop-opacity:1"/></radialGradient>
    </defs>
</svg>
