<?xml version="1.0" encoding="UTF-8"?>
<!-- Generated by Pixelmator Pro 3.0 -->
<svg width="1024" height="1024" viewBox="0 0 1024 1024" xmlns="http://www.w3.org/2000/svg" xmlns:xlink="http://www.w3.org/1999/xlink">
    <g id="NewIMELogo-CHT-">
        <g id="CHT">
            <path id="-" fill="#ffffff" fill-rule="evenodd" stroke="none" d="M 0 1019 L 1024 1019 L 1024 0 L 0 0 Z"/>
            <path id="path1" fill="#ff8346" fill-rule="evenodd" stroke="none" d="M 1024 541.759705 L 410.431976 541.759705 L 320 1024 L 1024 1024 Z"/>
            <path id="path2" fill="#f9ce29" fill-rule="evenodd" stroke="none" d="M 1024 0 L 508.359161 0 L 406.06897 541.759705 L 1024 541.759705 Z"/>
            <path id="path3" fill="#4ec03b" fill-rule="evenodd" stroke="none" d="M 0 541.759705 L 410.431976 541.759705 L 512 0 C 512 0 0 0 0 0 Z"/>
            <path id="path4" fill="#3d7db3" fill-rule="evenodd" stroke="none" d="M 320 1024 L 410.431976 541.759705 L -0 541.759705 L -0 1024 Z"/>
        </g>
        <g id="g1">
            <g id="TextElement">
                <g id="Text">
                    <path id="path5" fill="#002833" stroke="none" d="M 239.846634 241.067261 C 277.331116 272.359619 287.327362 271.200562 341.055725 257.291626 C 398.53125 242.226379 513.483704 231.794678 593.450745 229.476501 C 634.683838 227.158386 638.432434 231.794678 625.937134 248.018982 C 584.704041 302.495605 503.487457 383.628174 461.004852 398.693481 C 411.02655 414.920532 408.527496 417.238708 404.7789 454.329102 C 399.780762 504.166687 436.015717 512.280212 472.250641 498.371277 C 534.725769 472.871643 672.168335 463.601746 724.647156 472.871643 C 753.384888 477.507935 755.883972 489.098694 748.38678 513.43927 C 719.649048 610.796265 659.672974 712.792236 604.696533 778.856812 C 569.711121 820.583557 567.212097 819.4245 524.729492 797.402039 C 500.988403 785.811279 456.008209 760.311646 432.26712 751.041748 C 389.784515 732.49646 369.793488 747.564453 416.024689 799.720215 C 443.512909 829.853455 500.988403 882.011841 520.980896 909.826965 C 563.463501 968.93988 568.461609 970.098938 628.436157 915.622375 C 774.625488 783.493164 842.098694 555.16333 865.838318 535.461731 C 897.075134 509.962036 905.821838 501.848511 888.32843 474.030701 C 872.085999 448.533752 822.106201 419.556824 799.616089 405.647949 C 783.372192 395.216248 763.381165 380.15094 725.896667 391.741699 C 688.412231 402.170715 665.920654 389.423584 594.700317 398.693481 C 647.179138 345.378662 737.140991 265.405151 769.628784 252.655334 C 819.607117 231.794678 833.35199 219.0448 813.359497 201.658691 C 787.120789 177.318115 769.628784 152.980225 747.137268 137.912231 C 722.148071 119.367004 702.155579 130.957764 654.674866 143.707581 C 614.691345 154.139282 328.560425 185.431641 281.079712 177.318115 C 168.626297 158.775574 164.877701 176.158997 239.846634 241.067261 Z"/>
                    <path id="path6" fill="#ffffff" fill-rule="evenodd" stroke="none" d="M 491.234131 299.687683 C 488.638275 302.049377 486.043884 304.367493 483.496429 306.595886 C 467.108795 320.861206 452.403351 333.341675 440.773315 337.934448 C 387.430634 355.364136 368.687683 371.457886 357.346558 389.733765 C 349.321411 402.750244 343.939056 419.646606 341.102661 447.907959 C 341.102661 447.907959 341.102661 447.907959 341.102661 447.954224 C 336.393463 494.670959 352.63736 524.137573 372.676788 542.5495 C 400.789764 568.315796 447.597351 576.383057 495.17337 558.107239 C 495.606018 557.971191 496.038666 557.794312 496.422913 557.614746 C 538.280762 540.541504 619.256836 532.071533 674.331543 532.963989 C 645.400208 609.816772 598.784729 685.913086 555.582031 737.845703 L 553.515625 740.253601 L 552.794067 739.897217 C 528.237549 727.903687 481.911041 701.960571 456.679901 691.885315 C 425.010437 678.243042 398.24231 677.932861 382.095215 682.033142 C 359.797241 687.69519 344.70752 700.621948 335.240723 717.248901 C 327.598328 730.71167 322.745422 748.277344 327.167175 770.789551 C 330.242584 786.480591 340.862152 811.39801 368.111298 842.157104 C 368.351837 842.380188 368.543945 842.603271 368.736084 842.872681 C 394.879425 871.533936 450.001068 920.704895 469.031494 947.184082 C 485.658173 970.365601 498.586121 986.189941 509.686707 995.819031 C 527.99707 1011.689636 546.018433 1018.064575 564.183594 1019.177368 C 580.619629 1020.203125 598.737793 1016.859253 619.402039 1004.645386 C 632.52063 996.888306 649.100403 983.338501 671.399841 963.054688 C 808.21759 839.349182 881.216919 636.429199 912.550537 579.816772 C 944.507446 552.488708 956.954346 530.468994 960.126587 510.495361 C 963.202026 491.596436 960.895081 469.217529 942.489441 439.973999 C 942.44104 439.840637 942.392639 439.750854 942.297302 439.661072 C 922.065735 407.879028 862.138123 369.093506 833.736206 351.530518 C 817.253235 340.921936 798.366577 328.618347 772.366943 324.428223 C 780.585693 318.586609 787.650208 314.352966 793.032593 312.21167 C 793.416809 312.078369 793.849487 311.901489 794.282104 311.721924 C 830.709167 296.52063 852.863403 281.898865 863.868713 270.264587 C 880.015808 253.147766 885.637207 235.225647 886.166687 218.33197 C 886.743042 198.807251 880.640564 175.802612 856.32312 154.229065 C 828.064941 127.926758 808.314392 102.293762 784.09375 85.666748 C 756.171387 65.339355 731.038513 60.969727 699.561218 65.829102 C 683.846741 68.237061 664.86322 74.699036 638.335632 81.833069 C 600.610657 91.55188 335.865479 121.774963 291.844452 114.240967 C 291.749115 114.197388 291.603912 114.197388 291.508606 114.151184 C 240.807251 105.817261 207.119766 105.191467 189.098358 108.802002 C 158.534714 114.910278 142.771851 131.403992 134.217255 146.871948 C 124.221001 164.837585 119.511795 188.731995 133.881409 218.019104 C 141.570709 233.799927 162.234909 258.540466 197.940414 289.432861 C 198.229324 289.702209 198.51825 289.968872 198.854095 290.191956 C 222.449997 309.893555 239.990356 320.015076 256.955841 325.317932 C 281.752869 333.164856 307.510529 332.095581 357.106049 319.25592 C 357.154449 319.212402 357.20285 319.212402 357.298187 319.212402 C 389.112823 310.875732 439.667511 304.187927 491.234131 299.687683 Z M 239.846634 241.067261 C 277.331116 272.359619 287.327362 271.200562 341.055725 257.291626 C 398.53125 242.226379 513.483704 231.794678 593.450745 229.476501 C 634.683838 227.158386 638.432434 231.794678 625.937134 248.018982 C 584.704041 302.495605 503.487457 383.628174 461.004852 398.693481 C 411.02655 414.920532 408.527496 417.238708 404.7789 454.329102 C 399.780762 504.166687 436.015717 512.280212 472.250641 498.371277 C 534.725769 472.871643 672.168335 463.601746 724.647156 472.871643 C 753.384888 477.507935 755.883972 489.098694 748.38678 513.43927 C 719.649048 610.796265 659.672974 712.792236 604.696533 778.856812 C 569.711121 820.583557 567.212097 819.4245 524.729492 797.402039 C 500.988403 785.811279 456.008209 760.311646 432.26712 751.041748 C 389.784515 732.49646 369.793488 747.564453 416.024689 799.720215 C 443.512909 829.853455 500.988403 882.011841 520.980896 909.826965 C 563.463501 968.93988 568.461609 970.098938 628.436157 915.622375 C 774.625488 783.493164 842.098694 555.16333 865.838318 535.461731 C 897.075134 509.962036 905.821838 501.848511 888.32843 474.030701 C 872.085999 448.533752 822.106201 419.556824 799.616089 405.647949 C 783.372192 395.216248 763.381165 380.15094 725.896667 391.741699 C 688.412231 402.170715 665.920654 389.423584 594.700317 398.693481 C 647.179138 345.378662 737.140991 265.405151 769.628784 252.655334 C 819.607117 231.794678 833.35199 219.0448 813.359497 201.658691 C 787.120789 177.318115 769.628784 152.980225 747.137268 137.912231 C 722.148071 119.367004 702.155579 130.957764 654.674866 143.707581 C 614.691345 154.139282 328.560425 185.431641 281.079712 177.318115 C 168.626297 158.775574 164.877701 176.158997 239.846634 241.067261 Z"/>
                </g>
            </g>
        </g>
    </g>
</svg>
