<?xml version="1.0" encoding="UTF-8"?>
<!-- Generated by Pixelmator Pro 3.0 -->
<svg width="1024" height="1024" viewBox="0 0 1024 1024" xmlns="http://www.w3.org/2000/svg" xmlns:xlink="http://www.w3.org/1999/xlink">
    <g id="NewIMELogo-CHT-">
        <g id="CHT">
            <path id="-" fill="#ffffff" fill-rule="evenodd" stroke="none" d="M -122 1178.28125 L 1254 1178.28125 L 1254 -191 L -122 -191 Z"/>
            <path id="path1" fill="#ff8346" fill-rule="evenodd" stroke="none" d="M 1024 536.989563 L 429 537 L 338 1024 L 1024 1024 Z"/>
            <path id="path2" fill="#f9ce29" fill-rule="evenodd" stroke="none" d="M 1024 0 L 530 0 L 429 537 L 1024 537 Z"/>
            <path id="path3" fill="#4ec03b" fill-rule="evenodd" stroke="none" d="M 0 537 L 429.517975 536.989624 L 530 0 C 530 0 -3e-06 0 -3e-06 0 Z"/>
            <path id="path4" fill="#3d7db3" fill-rule="evenodd" stroke="none" d="M 338 1024 L 429.518005 536.989563 L 0 536.989563 L 0 1024 Z"/>
        </g>
    </g>
    <g id="NewIMELogo-CHT--">
        <g id="g1">
            <g id="TextElement">
                <g id="Text">
                    <path id="path5" fill="#002833" stroke="none" d="M 290.875397 291.867126 C 321.331543 317.292175 329.453491 316.350464 373.107788 305.049438 C 419.806641 292.80896 513.205505 284.333191 578.178711 282.449646 C 611.680603 280.566162 614.726379 284.333191 604.573914 297.515442 C 571.072021 341.77771 505.083557 407.697876 470.566437 419.938477 C 429.959076 433.122925 427.928589 435.00647 424.882843 465.142395 C 420.821869 505.635437 450.262756 512.227661 479.703644 500.926636 C 530.464661 480.208191 642.13678 472.676392 684.775818 480.208191 C 708.125244 483.97522 710.155701 493.3927 704.06427 513.169434 C 680.714844 592.271973 631.984314 675.143677 587.315918 728.821167 C 558.890259 762.724121 556.859802 761.78241 522.342712 743.88916 C 503.05307 734.47168 466.506683 713.753174 447.217041 706.221436 C 412.699921 691.153381 396.457214 703.396118 434.02005 745.772705 C 456.354248 770.25592 503.05307 812.634644 519.296997 835.234375 C 553.814087 883.263672 557.875061 884.205383 606.60437 839.943176 C 725.38324 732.588196 780.2052 547.07019 799.493652 531.062622 C 824.873535 510.344177 831.980225 503.751892 817.766846 481.149963 C 804.569885 460.433655 763.961304 436.889893 745.688049 425.588989 C 732.489929 417.11322 716.247192 404.87262 685.791016 414.290161 C 655.334961 422.763733 637.060547 412.406677 579.194031 419.938477 C 621.833069 376.620178 694.927063 311.641663 721.323364 301.282471 C 761.930786 284.333191 773.098511 273.973877 756.854614 259.847717 C 735.535645 240.070984 721.323364 220.296448 703.049011 208.053711 C 682.7453 192.985718 666.501404 202.403198 627.92334 212.76239 C 595.436707 221.238159 362.955353 246.663208 324.377258 240.070984 C 233.008865 225.005127 229.963135 239.129211 290.875397 291.867126 Z"/>
                    <path id="path6" fill="#ffffff" fill-rule="evenodd" stroke="none" d="M 495.127747 339.496216 C 493.018585 341.4151 490.910645 343.298584 488.840851 345.109131 C 475.525909 356.699707 463.577728 366.840088 454.128326 370.571716 C 410.787384 384.733337 395.558746 397.809509 386.344086 412.658691 C 379.823639 423.234558 375.45047 436.962891 373.145905 459.925232 C 373.145905 459.925232 373.145905 459.925232 373.145905 459.96283 C 369.319702 497.920166 382.517853 521.861816 398.799896 536.821472 C 421.641693 557.756592 459.672852 564.311279 498.328369 549.462158 C 498.679901 549.351563 499.031403 549.207886 499.343628 549.062012 C 533.353149 535.189941 599.146179 528.308105 643.894409 529.033203 C 620.387695 591.476135 582.512573 653.304382 547.4104 695.499634 L 545.731445 697.456055 L 545.145203 697.166504 C 525.192993 687.421753 487.552734 666.342957 467.052429 658.15686 C 441.320984 647.07251 419.571869 646.820435 406.452362 650.151917 C 388.335266 654.752319 376.07486 665.255371 368.383087 678.764771 C 362.173645 689.703247 358.230652 703.975342 361.823334 722.266479 C 364.322113 735.015503 372.9505 755.260864 395.090424 780.252686 C 395.285858 780.433899 395.441956 780.615173 395.598083 780.834045 C 416.839539 804.121338 461.625854 844.072754 477.088104 865.587036 C 490.59726 884.422058 501.101227 897.279297 510.120453 905.102966 C 524.99762 917.997803 539.639954 923.17749 554.39917 924.081604 C 567.753479 924.915039 582.474487 922.19812 599.26416 912.274353 C 609.923035 905.971741 623.394104 894.962524 641.51239 878.481934 C 752.676819 777.971191 811.98877 613.098755 837.447327 567.101135 C 863.412292 544.897095 873.525391 527.006104 876.102844 510.777466 C 878.601624 495.422119 876.727234 477.239258 861.772644 453.478882 C 861.733337 453.370544 861.694031 453.297546 861.616577 453.224609 C 845.178406 427.401733 796.487244 395.888489 773.410645 381.61853 C 760.01825 372.999084 744.672852 363.00238 723.548157 359.597961 C 730.225891 354.851624 735.96582 351.411804 740.338989 349.671997 C 740.651184 349.56366 741.002686 349.419983 741.354187 349.274048 C 770.951172 336.923035 788.951538 325.042847 797.893311 315.589966 C 811.012817 301.682556 815.580261 287.12085 816.010437 273.394714 C 816.478699 257.530884 811.520447 238.8396 791.762512 221.311096 C 768.802795 199.940491 752.755432 179.113708 733.076172 165.604248 C 710.389282 149.088257 689.968811 145.537903 664.393494 149.486145 C 651.625488 151.442627 636.201355 156.692993 614.647705 162.48938 C 583.996155 170.385925 368.890717 194.942139 333.123627 188.820801 C 333.046143 188.7854 332.928192 188.7854 332.850739 188.747864 C 291.655884 181.976501 264.284821 181.468079 249.64241 184.401611 C 224.809448 189.364624 212.002136 202.765747 205.051514 215.333435 C 196.929565 229.930542 193.103333 249.344727 204.778641 273.140503 C 211.026199 285.962463 227.815857 306.064148 256.826599 331.164185 C 257.06134 331.383057 257.296082 331.599731 257.568939 331.780945 C 276.740631 347.788513 290.992157 356.012268 304.776611 360.320801 C 324.924194 366.696472 345.852295 365.827637 386.148651 355.395447 C 386.187988 355.360107 386.227325 355.360107 386.304779 355.360107 C 412.154175 348.586548 453.229858 343.15271 495.127747 339.496216 Z M 290.875397 291.867126 C 321.331543 317.292175 329.453491 316.350464 373.107788 305.049438 C 419.806641 292.80896 513.205505 284.333191 578.178711 282.449646 C 611.680603 280.566162 614.726379 284.333191 604.573914 297.515442 C 571.072021 341.77771 505.083557 407.697876 470.566437 419.938477 C 429.959076 433.122925 427.928589 435.00647 424.882843 465.142395 C 420.821869 505.635437 450.262756 512.227661 479.703644 500.926636 C 530.464661 480.208191 642.13678 472.676392 684.775818 480.208191 C 708.125244 483.97522 710.155701 493.3927 704.06427 513.169434 C 680.714844 592.271973 631.984314 675.143677 587.315918 728.821167 C 558.890259 762.724121 556.859802 761.78241 522.342712 743.88916 C 503.05307 734.47168 466.506683 713.753174 447.217041 706.221436 C 412.699921 691.153381 396.457214 703.396118 434.02005 745.772705 C 456.354248 770.25592 503.05307 812.634644 519.296997 835.234375 C 553.814087 883.263672 557.875061 884.205383 606.60437 839.943176 C 725.38324 732.588196 780.2052 547.07019 799.493652 531.062622 C 824.873535 510.344177 831.980225 503.751892 817.766846 481.149963 C 804.569885 460.433655 763.961304 436.889893 745.688049 425.588989 C 732.489929 417.11322 716.247192 404.87262 685.791016 414.290161 C 655.334961 422.763733 637.060547 412.406677 579.194031 419.938477 C 621.833069 376.620178 694.927063 311.641663 721.323364 301.282471 C 761.930786 284.333191 773.098511 273.973877 756.854614 259.847717 C 735.535645 240.070984 721.323364 220.296448 703.049011 208.053711 C 682.7453 192.985718 666.501404 202.403198 627.92334 212.76239 C 595.436707 221.238159 362.955353 246.663208 324.377258 240.070984 C 233.008865 225.005127 229.963135 239.129211 290.875397 291.867126 Z"/>
                </g>
            </g>
        </g>
    </g>
</svg>
